<?xml version="1.0" standalone="no"?>
<!DOCTYPE svg PUBLIC "-//W3C//DTD SVG 20010904//EN"
 "http://www.w3.org/TR/2001/REC-SVG-20010904/DTD/svg10.dtd">
<svg version="1.0" xmlns="http://www.w3.org/2000/svg"
 width="640.000000pt" height="1280.000000pt" viewBox="0 0 640.000000 1280.000000"
 preserveAspectRatio="xMidYMid meet">
<metadata>
Created by potrace 1.15, written by Peter Selinger 2001-2017
</metadata>
<g transform="translate(0.000000,1280.000000) scale(0.100000,-0.100000)"
fill="#000000" stroke="none">
<path d="M224 12782 c-78 -27 -130 -76 -172 -162 -16 -33 -17 -410 -20 -6190
-2 -5499 0 -6161 13 -6214 17 -65 61 -131 112 -166 77 -53 -103 -50 3043 -50
3206 0 2968 -5 3054 62 54 41 80 80 100 148 15 49 16 628 16 6184 0 5104 -3
6141 -14 6188 -15 63 -61 132 -113 168 -77 53 104 50 -3047 50 -2768 -1 -2924
-2 -2972 -18z m5576 -6097 l0 -4675 -2600 0 -2600 0 0 4675 0 4675 2600 0
2600 0 0 -4675z"/>
</g>
</svg>
