<?xml version='1.0' encoding='UTF-8'?>
<svg x="0px" y="0px" viewBox="0 0 32 32" version="1.1" xmlns="http://www.w3.org/2000/svg" xmlns:xlink="http://www.w3.org/1999/xlink" xml:space="preserve" id="Layer_1">
  <g id="AgendaView">
    <path d="M12,13c0,1.7-1.3,3-3,3s-3-1.3-3-3s1.3-3,3-3S12,11.3,12,13z M9,18c-1.7,0-3,1.3-3,3s1.3,3,3,3s3-1.3,3-3   S10.7,18,9,18z" fill="#039C23" class="Green" />
    <path d="M0,3v26c0,0.6,0.4,1,1,1h30c0.6,0,1-0.4,1-1V3c0-0.6-0.4-1-1-1H1C0.4,2,0,2.4,0,3z M30,28H2V6h28V28z M26,14   H16v-2h10V14z M26,22H16v-2h10V22z" fill="#727272" class="Black" />
  </g>
</svg>