<?xml version='1.0' encoding='UTF-8'?>
<svg viewBox="-7.0925 -2 32 31.995" xmlns="http://www.w3.org/2000/svg" xmlns:xlink="http://www.w3.org/1999/xlink">
  <g transform="translate(-6.3648, -1.2747)">
    <g transform="matrix(1.9996, 0, 0, 1.9996, 0, 0)">
      <g transform="matrix(0.5, 0, 0, 0.5, 0, 0)">
        <g transform="matrix(0.6364, 0, 0, 0.6364, 0, 0)">
          <g transform="matrix(1, 0, 0, 1, 0, 0)">
            <path d="M32, 2L16, 2C12.69, 2 10, 4.69 10, 8L10, 40C10, 43.31 12.69, 46 16, 46L32, 46C35.31, 46 38, 43.31 38, 40L38, 8C38, 4.69 35.31, 2 32, 2zM28, 42L20, 42L20, 40L28, 40L28, 42zM34.5, 36L13.5, 36L13.5, 8L34.5, 8L34.5, 36z" fill="#FFFFFF" fill-opacity="1" class="White" />
          </g>
        </g>
      </g>
    </g>
  </g>
  <g transform="translate(1.9075, 5)">
    <g transform="matrix(0.5, 0, 0, 0.5, 0, 0)">
      <g transform="matrix(1.1667, 0, 0, 1.1667, 0, 0)">
        <g transform="matrix(1, 0, 0, 1, 0, 0)">
          <path d="M0, 0L24, 0L24, 24L0, 24z" fill="none" />
        </g>
      </g>
    </g>
  </g>
  <g transform="translate(1.9075, 5)">
    <g transform="matrix(0.5, 0, 0, 0.5, 0, 0)">
      <g transform="matrix(1.1667, 0, 0, 1.1667, 0, 0)">
        <g transform="matrix(1, 0, 0, 1, 0, 0)">
          <path d="M6, 18C6, 18.55 6.45, 19 7, 19L8, 19L8, 22.5C8, 23.33 8.67, 24 9.5, 24C10.33, 24 11, 23.33 11, 22.5L11, 19L13, 19L13, 22.5C13, 23.33 13.67, 24 14.5, 24C15.33, 24 16, 23.33 16, 22.5L16, 19L17, 19C17.55, 19 18, 18.55 18, 18L18, 8L6, 8L6, 18zM3.5, 8C2.67, 8 2, 8.67 2, 9.5L2, 16.5C2, 17.33 2.67, 18 3.5, 18C4.33, 18 5, 17.33 5, 16.5L5, 9.5C5, 8.67 4.33, 8 3.5, 8zM20.5, 8C19.67, 8 19, 8.67 19, 9.5L19, 16.5C19, 17.33 19.67, 18 20.5, 18C21.33, 18 22, 17.33 22, 16.5L22, 9.5C22, 8.67 21.33, 8 20.5, 8zM15.53, 2.16L16.83, 0.86C17.03, 0.66 17.03, 0.35 16.83, 0.15C16.63, -0.05 16.32, -0.05 16.12, 0.15L14.64, 1.63C13.85, 1.23 12.95, 1 12, 1C11.04, 1 10.14, 1.23 9.34, 1.63L7.85, 0.15C7.65, -0.05 7.34, -0.05 7.14, 0.15C6.94, 0.35 6.94, 0.66 7.14, 0.86L8.45, 2.17C6.97, 3.26 6, 5.01 6, 7L18, 7C18, 5.01 17.03, 3.25 15.53, 2.16zM10, 5L9, 5L9, 4L10, 4L10, 5zM15, 5L14, 5L14, 4L15, 4L15, 5z" fill="#039C23" fill-opacity="1" class="Green" />
        </g>
      </g>
    </g>
  </g>
</svg>