<?xml version='1.0' encoding='UTF-8'?>
<svg viewBox="-1.9999 -1.9999 32 32" xmlns="http://www.w3.org/2000/svg" xmlns:xlink="http://www.w3.org/1999/xlink">
  <g transform="translate(0, 0)">
    <g transform="matrix(2.0001, 0, 0, 2.0001, 0, 0)">
      <g transform="matrix(0.5, 0, 0, 0.5, 0, 0)">
        <g transform="matrix(0.5833, 0, 0, 0.5833, 0, 0)">
          <g transform="matrix(1, 0, 0, 1, 0, 0)">
            <path d="M32, 2L16, 2C12.69, 2 10, 4.69 10, 8L10, 40C10, 43.31 12.69, 46 16, 46L32, 46C35.31, 46 38, 43.31 38, 40L38, 8C38, 4.69 35.31, 2 32, 2zM28, 42L20, 42L20, 40L28, 40L28, 42zM34.5, 36L13.5, 36L13.5, 8L34.5, 8L34.5, 36z" fill="#FFFFFF" fill-opacity="1" class="White" />
          </g>
        </g>
      </g>
    </g>
  </g>
  <g transform="translate(0, 0)">
    <g transform="matrix(2.0001, 0, 0, 2.0001, 0, 0)">
      <g transform="matrix(0.5, 0, 0, 0.5, 0, 0)">
        <g transform="matrix(0.5833, 0, 0, 0.5833, 0, 0)">
          <g transform="matrix(1, 0, 0, 1, 0, 0)">
            <path d="M0, 0L48, 0L48, 48L0, 48z" fill="none" />
          </g>
        </g>
      </g>
    </g>
  </g>
  <g transform="translate(7.0001, 5.0001)">
    <g transform="matrix(0.5, 0, 0, 0.5, 0, 0)">
      <g transform="matrix(1.1667, 0, 0, 1.1667, 0, 0)">
        <g transform="matrix(1, 0, 0, 1, 0, 0)">
          <path d="M0, 0L24, 0L24, 24L0, 24z" fill="none" />
        </g>
      </g>
    </g>
  </g>
  <g transform="translate(7.0001, 5.0001)">
    <g transform="matrix(0.5, 0, 0, 0.5, 0, 0)">
      <g transform="matrix(1.1667, 0, 0, 1.1667, 0, 0)">
        <g transform="matrix(1, 0, 0, 1, 0, 0)">
          <path d="M11, 17L13, 17L13, 11L11, 11L11, 17zM12, 2C6.48, 2 2, 6.48 2, 12C2, 17.52 6.48, 22 12, 22C17.52, 22 22, 17.52 22, 12C22, 6.48 17.52, 2 12, 2zM12, 20C7.59, 20 4, 16.41 4, 12C4, 7.59 7.59, 4 12, 4C16.41, 4 20, 7.59 20, 12C20, 16.41 16.41, 20 12, 20zM11, 9L13, 9L13, 7L11, 7L11, 9z" fill="#FFFFFF" fill-opacity="1" class="White" />
        </g>
      </g>
    </g>
  </g>
</svg>