<?xml version='1.0' encoding='UTF-8'?>
<svg viewBox="-0.3636 -0.3636 16 16" xmlns="http://www.w3.org/2000/svg">
  <g transform="matrix(0.5, 0, 0, 0.5, 0, 0)">
    <g transform="matrix(1.2727, 0, 0, 1.2727, 0, 0)">
      <g transform="matrix(1, 0, 0, 1, 0, 0)">
        <path d="M16, 1L8, 1C6.34, 1 5, 2.34 5, 4L5, 20C5, 21.66 6.34, 23 8, 23L16, 23C17.66, 23 19, 21.66 19, 20L19, 4C19, 2.34 17.66, 1 16, 1zM14, 21L10, 21L10, 20L14, 20L14, 21zM17.25, 18L6.75, 18L6.75, 4L17.25, 4L17.25, 18z" fill="#727272" fill-opacity="1" class="Black" />
      </g>
    </g>
  </g>
</svg>