<?xml version='1.0' encoding='UTF-8'?>
<svg viewBox="-1.9999 -1.9999 32 32" xmlns="http://www.w3.org/2000/svg" xmlns:xlink="http://www.w3.org/1999/xlink">
  <g transform="translate(0, 0)">
    <g transform="matrix(2.0001, 0, 0, 2.0001, 0, 0)">
      <g transform="matrix(0.5, 0, 0, 0.5, 0, 0)">
        <g transform="matrix(0.5833, 0, 0, 0.5833, 0, 0)">
          <g transform="matrix(1, 0, 0, 1, 0, 0)">
            <path d="M32, 2L16, 2C12.69, 2 10, 4.69 10, 8L10, 40C10, 43.31 12.69, 46 16, 46L32, 46C35.31, 46 38, 43.31 38, 40L38, 8C38, 4.69 35.31, 2 32, 2zM28, 42L20, 42L20, 40L28, 40L28, 42zM34.5, 36L13.5, 36L13.5, 8L34.5, 8L34.5, 36z" fill="#FFFFFF" fill-opacity="1" class="White" />
          </g>
        </g>
      </g>
    </g>
  </g>
  <g transform="translate(0, 0)">
    <g transform="matrix(2.0001, 0, 0, 2.0001, 0, 0)">
      <g transform="matrix(0.5, 0, 0, 0.5, 0, 0)">
        <g transform="matrix(0.5833, 0, 0, 0.5833, 0, 0)">
          <g transform="matrix(1, 0, 0, 1, 0, 0)">
            <path d="M0, 0L48, 0L48, 48L0, 48z" fill="none" />
          </g>
        </g>
      </g>
    </g>
  </g>
  <g transform="translate(7.0001, 7.0001)">
    <g transform="matrix(0.5, 0, 0, 0.5, 0, 0)">
      <g transform="matrix(1.1667, 0, 0, 1.1667, 0, 0)">
        <g transform="matrix(1, 0, 0, 1, 0, 0)">
          <path d="M0, 0L24, 0L24, 24L0, 24z" fill="none" />
        </g>
      </g>
    </g>
  </g>
  <g transform="translate(7.0001, 7.0001)">
    <g transform="matrix(0.5, 0, 0, 0.5, 0, 0)">
      <g transform="matrix(1.1667, 0, 0, 1.1667, 0, 0)">
        <g transform="matrix(1, 0, 0, 1, 0, 0)">
          <path d="M19.43, 12.98C19.47, 12.66 19.5, 12.34 19.5, 12C19.5, 11.66 19.47, 11.34 19.43, 11.02L21.54, 9.37C21.73, 9.22 21.78, 8.95 21.66, 8.73L19.66, 5.27C19.54, 5.05 19.27, 4.97 19.05, 5.05L16.56, 6.05C16.04, 5.65 15.48, 5.32 14.87, 5.07L14.49, 2.42C14.46, 2.18 14.25, 2 14, 2L10, 2C9.75, 2 9.54, 2.18 9.51, 2.42L9.13, 5.07C8.52, 5.32 7.96, 5.66 7.44, 6.05L4.95, 5.05C4.72, 4.96 4.46, 5.05 4.34, 5.27L2.34, 8.73C2.21, 8.95 2.27, 9.22 2.46, 9.37L4.57, 11.02C4.53, 11.34 4.5, 11.67 4.5, 12C4.5, 12.33 4.53, 12.66 4.57, 12.98L2.46, 14.63C2.27, 14.78 2.22, 15.05 2.34, 15.27L4.34, 18.73C4.46, 18.95 4.73, 19.03 4.95, 18.95L7.44, 17.95C7.96, 18.35 8.52, 18.68 9.13, 18.93L9.51, 21.58C9.54, 21.82 9.75, 22 10, 22L14, 22C14.25, 22 14.46, 21.82 14.49, 21.58L14.87, 18.93C15.48, 18.68 16.04, 18.34 16.56, 17.95L19.05, 18.95C19.28, 19.04 19.54, 18.95 19.66, 18.73L21.66, 15.27C21.78, 15.05 21.73, 14.78 21.54, 14.63L19.43, 12.98zM12, 15.5C10.07, 15.5 8.5, 13.93 8.5, 12C8.5, 10.07 10.07, 8.5 12, 8.5C13.93, 8.5 15.5, 10.07 15.5, 12C15.5, 13.93 13.93, 15.5 12, 15.5z" fill="#FFFFFF" fill-opacity="1" class="White" />
        </g>
      </g>
    </g>
  </g>
</svg>